<?xml version="1.0" encoding="UTF-8"?>
<svg width="1270px" height="1024px" viewBox="0 0 1270 1024" version="1.1" xmlns="http://www.w3.org/2000/svg" xmlns:xlink="http://www.w3.org/1999/xlink">
    <!-- Generator: Sketch 57.1 (83088) - https://sketch.com -->
    <title>Desktop HD Copy 2</title>
    <desc>Created with Sketch.</desc>
    <g id="Desktop-HD-Copy-2" stroke="none" stroke-width="1" fill="none" fill-rule="evenodd">
        <rect fill="#1B1B1B" x="0" y="0" width="1270" height="1024"></rect>
        <g id="pink" transform="translate(0.000000, 633.000000)" fill="#B800FF">
            <rect id="Rectangle-Copy-2" x="0" y="330" width="70" height="10" rx="5"></rect>
            <rect id="Rectangle-Copy-3" x="0" y="286" width="70" height="10" rx="5"></rect>
            <rect id="Rectangle-Copy-5" x="0" y="264" width="70" height="10" rx="5"></rect>
            <rect id="Rectangle-Copy-6" x="0" y="242" width="70" height="10" rx="5"></rect>
            <rect id="Rectangle-Copy-7" x="0" y="220" width="70" height="10" rx="5"></rect>
            <rect id="Rectangle-Copy-8" x="0" y="198" width="70" height="10" rx="5"></rect>
            <rect id="Rectangle-Copy-9" x="0" y="176" width="70" height="10" rx="5"></rect>
            <rect id="Rectangle-Copy-10" fill-opacity="0.23314576" x="0" y="154" width="70" height="10" rx="5"></rect>
            <rect id="Rectangle-Copy-11" fill-opacity="0.2" x="0" y="132" width="70" height="10" rx="5"></rect>
            <rect id="Rectangle-Copy-12" fill-opacity="0.15" x="0" y="110" width="70" height="10" rx="5"></rect>
            <rect id="Rectangle-Copy-13" fill-opacity="0.1" x="0" y="88" width="70" height="10" rx="5"></rect>
            <rect id="Rectangle-Copy-14" fill-opacity="0.05" x="0" y="66" width="70" height="10" rx="5"></rect>
            <rect id="Rectangle-Copy-15" fill-opacity="0.03" x="0" y="44" width="70" height="10" rx="5"></rect>
            <rect id="Rectangle-Copy-16" fill-opacity="0.02" x="0" y="22" width="70" height="10" rx="5"></rect>
            <rect id="Rectangle-Copy-17" fill-opacity="0.02" x="0" y="0" width="70" height="10" rx="5"></rect>
            <rect id="Rectangle-Copy-4" x="0" y="308" width="70" height="10" rx="5"></rect>
            <rect id="Rectangle-Copy" x="0" y="352" width="70" height="10" rx="5"></rect>
            <rect id="Rectangle" x="0" y="374" width="70" height="10" rx="5"></rect>
        </g>
        <g id="yellow" transform="translate(700.000000, 640.000000)" fill="#F3FF00">
            <rect id="Rectangle" x="0" y="374" width="70" height="10" rx="5"></rect>
            <rect id="Rectangle-Copy" x="0" y="352" width="70" height="10" rx="5"></rect>
            <rect id="Rectangle-Copy-2" x="0" y="330" width="70" height="10" rx="5"></rect>
            <rect id="Rectangle-Copy-3" x="0" y="286" width="70" height="10" rx="5"></rect>
            <rect id="Rectangle-Copy-5" x="0" y="264" width="70" height="10" rx="5"></rect>
            <rect id="Rectangle-Copy-6" fill-opacity="0.55" x="0" y="242" width="70" height="10" rx="5"></rect>
            <rect id="Rectangle-Copy-7" fill-opacity="0.5" x="0" y="220" width="70" height="10" rx="5"></rect>
            <rect id="Rectangle-Copy-8" fill-opacity="0.4" x="0" y="198" width="70" height="10" rx="5"></rect>
            <rect id="Rectangle-Copy-9" fill-opacity="0.3" x="0" y="176" width="70" height="10" rx="5"></rect>
            <rect id="Rectangle-Copy-10" fill-opacity="0.2" x="0" y="154" width="70" height="10" rx="5"></rect>
            <rect id="Rectangle-Copy-11" fill-opacity="0.1" x="0" y="132" width="70" height="10" rx="5"></rect>
            <rect id="Rectangle-Copy-12" fill-opacity="0.1" x="0" y="110" width="70" height="10" rx="5"></rect>
            <rect id="Rectangle-Copy-13" fill-opacity="0.08" x="0" y="88" width="70" height="10" rx="5"></rect>
            <rect id="Rectangle-Copy-14" fill-opacity="0.06" x="0" y="66" width="70" height="10" rx="5"></rect>
            <rect id="Rectangle-Copy-15" fill-opacity="0.04" x="0" y="44" width="70" height="10" rx="5"></rect>
            <rect id="Rectangle-Copy-16" fill-opacity="0.02" x="0" y="22" width="70" height="10" rx="5"></rect>
            <rect id="Rectangle-Copy-17" fill-opacity="0.01" x="0" y="0" width="70" height="10" rx="5"></rect>
            <rect id="Rectangle-Copy-4" x="0" y="308" width="70" height="10" rx="5"></rect>
        </g>
        <g id="yellow1" transform="translate(800.000000, 640.000000)" fill="#FFE000">
            <rect id="Rectangle" x="0" y="374" width="70" height="10" rx="5"></rect>
            <rect id="Rectangle-Copy" x="0" y="352" width="70" height="10" rx="5"></rect>
            <rect id="Rectangle-Copy-2" x="0" y="330" width="70" height="10" rx="5"></rect>
            <rect id="Rectangle-Copy-3" x="0" y="286" width="70" height="10" rx="5"></rect>
            <rect id="Rectangle-Copy-5" x="0" y="264" width="70" height="10" rx="5"></rect>
            <rect id="Rectangle-Copy-6" x="0" y="242" width="70" height="10" rx="5"></rect>
            <rect id="Rectangle-Copy-7" x="0" y="220" width="70" height="10" rx="5"></rect>
            <rect id="Rectangle-Copy-8" x="0" y="198" width="70" height="10" rx="5"></rect>
            <rect id="Rectangle-Copy-9" x="0" y="176" width="70" height="10" rx="5"></rect>
            <rect id="Rectangle-Copy-10" x="0" y="154" width="70" height="10" rx="5"></rect>
            <rect id="Rectangle-Copy-11" fill-opacity="0.5" x="0" y="132" width="70" height="10" rx="5"></rect>
            <rect id="Rectangle-Copy-12" fill-opacity="0.4" x="0" y="110" width="70" height="10" rx="5"></rect>
            <rect id="Rectangle-Copy-13" fill-opacity="0.3" x="0" y="88" width="70" height="10" rx="5"></rect>
            <rect id="Rectangle-Copy-14" fill-opacity="0.2" x="0" y="66" width="70" height="10" rx="5"></rect>
            <rect id="Rectangle-Copy-15" fill-opacity="0.1" x="0" y="44" width="70" height="10" rx="5"></rect>
            <rect id="Rectangle-Copy-16" fill-opacity="0.04" x="0" y="22" width="70" height="10" rx="5"></rect>
            <rect id="Rectangle-Copy-17" fill-opacity="0.01" x="0" y="0" width="70" height="10" rx="5"></rect>
            <rect id="Rectangle-Copy-4" x="0" y="308" width="70" height="10" rx="5"></rect>
        </g>
        <g id="orange" transform="translate(900.000000, 640.000000)" fill="#FF9400">
            <rect id="Rectangle" x="0" y="374" width="70" height="10" rx="5"></rect>
            <rect id="Rectangle-Copy" x="0" y="352" width="70" height="10" rx="5"></rect>
            <rect id="Rectangle-Copy-2" x="0" y="330" width="70" height="10" rx="5"></rect>
            <rect id="Rectangle-Copy-3" x="0" y="286" width="70" height="10" rx="5"></rect>
            <rect id="Rectangle-Copy-5" x="0" y="264" width="70" height="10" rx="5"></rect>
            <rect id="Rectangle-Copy-6" x="0" y="242" width="70" height="10" rx="5"></rect>
            <rect id="Rectangle-Copy-7" x="0" y="220" width="70" height="10" rx="5"></rect>
            <rect id="Rectangle-Copy-8" fill-opacity="0.5" x="0" y="198" width="70" height="10" rx="5"></rect>
            <rect id="Rectangle-Copy-9" fill-opacity="0.4" x="0" y="176" width="70" height="10" rx="5"></rect>
            <rect id="Rectangle-Copy-10" fill-opacity="0.3" x="0" y="154" width="70" height="10" rx="5"></rect>
            <rect id="Rectangle-Copy-11" fill-opacity="0.2" x="0" y="132" width="70" height="10" rx="5"></rect>
            <rect id="Rectangle-Copy-12" fill-opacity="0.1" x="0" y="110" width="70" height="10" rx="5"></rect>
            <rect id="Rectangle-Copy-13" fill-opacity="0.08" x="0" y="88" width="70" height="10" rx="5"></rect>
            <rect id="Rectangle-Copy-14" fill-opacity="0.06" x="0" y="66" width="70" height="10" rx="5"></rect>
            <rect id="Rectangle-Copy-15" fill-opacity="0.04" x="0" y="44" width="70" height="10" rx="5"></rect>
            <rect id="Rectangle-Copy-16" fill-opacity="0.02" x="0" y="22" width="70" height="10" rx="5"></rect>
            <rect id="Rectangle-Copy-17" fill-opacity="0.01" x="0" y="0" width="70" height="10" rx="5"></rect>
            <rect id="Rectangle-Copy-4" x="0" y="308" width="70" height="10" rx="5"></rect>
        </g>
        <g id="orange-2" transform="translate(1000.000000, 552.000000)" fill="#FF5100">
            <rect id="Rectangle" x="0" y="462" width="70" height="10" rx="5"></rect>
            <rect id="Rectangle-Copy" x="0" y="440" width="70" height="10" rx="5"></rect>
            <rect id="Rectangle-Copy-2" x="0" y="418" width="70" height="10" rx="5"></rect>
            <rect id="Rectangle-Copy-3" x="0" y="374" width="70" height="10" rx="5"></rect>
            <rect id="Rectangle-Copy-5" x="0" y="352" width="70" height="10" rx="5"></rect>
            <rect id="Rectangle-Copy-6" x="0" y="330" width="70" height="10" rx="5"></rect>
            <rect id="Rectangle-Copy-7" x="0" y="308" width="70" height="10" rx="5"></rect>
            <rect id="Rectangle-Copy-8" x="0" y="286" width="70" height="10" rx="5"></rect>
            <rect id="Rectangle-Copy-9" x="0" y="264" width="70" height="10" rx="5"></rect>
            <rect id="Rectangle-Copy-10" x="0" y="242" width="70" height="10" rx="5"></rect>
            <rect id="Rectangle-Copy-11" x="0" y="220" width="70" height="10" rx="5"></rect>
            <rect id="Rectangle-Copy-12" fill-opacity="0.5" x="0" y="198" width="70" height="10" rx="5"></rect>
            <rect id="Rectangle-Copy-13" fill-opacity="0.4" x="0" y="176" width="70" height="10" rx="5"></rect>
            <rect id="Rectangle-Copy-14" fill-opacity="0.3" x="0" y="154" width="70" height="10" rx="5"></rect>
            <rect id="Rectangle-Copy-15" fill-opacity="0.2" x="0" y="132" width="70" height="10" rx="5"></rect>
            <rect id="Rectangle-Copy-16" fill-opacity="0.1" x="0" y="110" width="70" height="10" rx="5"></rect>
            <rect id="Rectangle-Copy-17" fill-opacity="0.08" x="0" y="88" width="70" height="10" rx="5"></rect>
            <rect id="Rectangle-Copy-21" fill-opacity="0.06" x="0" y="66" width="70" height="10" rx="5"></rect>
            <rect id="Rectangle-Copy-22" fill-opacity="0.04" x="0" y="44" width="70" height="10" rx="5"></rect>
            <rect id="Rectangle-Copy-23" fill-opacity="0.03" x="0" y="22" width="70" height="10" rx="5"></rect>
            <rect id="Rectangle-Copy-24" fill-opacity="0.01" x="0" y="0" width="70" height="10" rx="5"></rect>
            <rect id="Rectangle-Copy-4" x="0" y="396" width="70" height="10" rx="5"></rect>
        </g>
        <g id="red" transform="translate(1100.000000, 640.000000)" fill="#CD0000">
            <rect id="Rectangle" x="0" y="374" width="70" height="10" rx="5"></rect>
            <rect id="Rectangle-Copy" x="0" y="352" width="70" height="10" rx="5"></rect>
            <rect id="Rectangle-Copy-2" x="0" y="330" width="70" height="10" rx="5"></rect>
            <rect id="Rectangle-Copy-3" fill-opacity="0.5" x="0" y="286" width="70" height="10" rx="5"></rect>
            <rect id="Rectangle-Copy-5" fill-opacity="0.4" x="0" y="264" width="70" height="10" rx="5"></rect>
            <rect id="Rectangle-Copy-6" fill-opacity="0.3" x="0" y="242" width="70" height="10" rx="5"></rect>
            <rect id="Rectangle-Copy-7" fill-opacity="0.2" x="0" y="220" width="70" height="10" rx="5"></rect>
            <rect id="Rectangle-Copy-8" fill-opacity="0.1" x="0" y="198" width="70" height="10" rx="5"></rect>
            <rect id="Rectangle-Copy-9" fill-opacity="0.08" x="0" y="176" width="70" height="10" rx="5"></rect>
            <rect id="Rectangle-Copy-10" fill-opacity="0.06" x="0" y="154" width="70" height="10" rx="5"></rect>
            <rect id="Rectangle-Copy-11" fill-opacity="0.04" x="0" y="132" width="70" height="10" rx="5"></rect>
            <rect id="Rectangle-Copy-12" fill-opacity="0.03" x="0" y="110" width="70" height="10" rx="5"></rect>
            <rect id="Rectangle-Copy-13" fill-opacity="0.03" x="0" y="88" width="70" height="10" rx="5"></rect>
            <rect id="Rectangle-Copy-14" fill-opacity="0.02" x="0" y="66" width="70" height="10" rx="5"></rect>
            <rect id="Rectangle-Copy-15" fill-opacity="0.01" x="0" y="44" width="70" height="10" rx="5"></rect>
            <rect id="Rectangle-Copy-16" fill-opacity="0.01" x="0" y="22" width="70" height="10" rx="5"></rect>
            <rect id="Rectangle-Copy-17" fill-opacity="0.01" x="0" y="0" width="70" height="10" rx="5"></rect>
            <rect id="Rectangle-Copy-4" x="0" y="308" width="70" height="10" rx="5"></rect>
        </g>
        <g id="red1" transform="translate(1200.000000, 640.000000)" fill="#FF0000">
            <rect id="Rectangle" x="0" y="352" width="70" height="10" rx="5"></rect>
            <rect id="Rectangle-Copy" x="0" y="330" width="70" height="10" rx="5"></rect>
            <rect id="Rectangle-Copy-2" x="0" y="308" width="70" height="10" rx="5"></rect>
            <rect id="Rectangle-Copy-3" x="0" y="286" width="70" height="10" rx="5"></rect>
            <rect id="Rectangle-Copy-5" x="0" y="264" width="70" height="10" rx="5"></rect>
            <rect id="Rectangle-Copy-6" x="0" y="242" width="70" height="10" rx="5"></rect>
            <rect id="Rectangle-Copy-7" x="0" y="220" width="70" height="10" rx="5"></rect>
            <rect id="Rectangle-Copy-8" x="0" y="198" width="70" height="10" rx="5"></rect>
            <rect id="Rectangle-Copy-9" fill-opacity="0.5" x="0" y="176" width="70" height="10" rx="5"></rect>
            <rect id="Rectangle-Copy-10" fill-opacity="0.4" x="0" y="154" width="70" height="10" rx="5"></rect>
            <rect id="Rectangle-Copy-11" fill-opacity="0.3" x="0" y="132" width="70" height="10" rx="5"></rect>
            <rect id="Rectangle-Copy-12" fill-opacity="0.2" x="0" y="110" width="70" height="10" rx="5"></rect>
            <rect id="Rectangle-Copy-13" fill-opacity="0.1" x="0" y="88" width="70" height="10" rx="5"></rect>
            <rect id="Rectangle-Copy-14" fill-opacity="0.08" x="0" y="66" width="70" height="10" rx="5"></rect>
            <rect id="Rectangle-Copy-15" fill-opacity="0.16" x="0" y="44" width="70" height="10" rx="5"></rect>
            <rect id="Rectangle-Copy-16" fill-opacity="0.04" x="0" y="22" width="70" height="10" rx="5"></rect>
            <rect id="Rectangle-Copy-17" fill-opacity="0.02" x="0" y="0" width="70" height="10" rx="5"></rect>
            <rect id="Rectangle-Copy-4" x="0" y="374" width="70" height="10" rx="5"></rect>
        </g>
        <g id="purple" transform="translate(100.000000, 633.000000)" fill="#6000FF">
            <rect id="Rectangle" x="0" y="374" width="70" height="10" rx="5"></rect>
            <rect id="Rectangle-Copy" x="0" y="352" width="70" height="10" rx="5"></rect>
            <rect id="Rectangle-Copy-2" x="0" y="330" width="70" height="10" rx="5"></rect>
            <rect id="Rectangle-Copy-3" x="0" y="286" width="70" height="10" rx="5"></rect>
            <rect id="Rectangle-Copy-5" x="0" y="264" width="70" height="10" rx="5"></rect>
            <rect id="Rectangle-Copy-6" x="0" y="242" width="70" height="10" rx="5"></rect>
            <rect id="Rectangle-Copy-7" x="0" y="220" width="70" height="10" rx="5"></rect>
            <rect id="Rectangle-Copy-8" x="0" y="198" width="70" height="10" rx="5"></rect>
            <rect id="Rectangle-Copy-9" x="0" y="176" width="70" height="10" rx="5"></rect>
            <rect id="Rectangle-Copy-10" x="0" y="154" width="70" height="10" rx="5"></rect>
            <rect id="Rectangle-Copy-11" x="0" y="132" width="70" height="10" rx="5"></rect>
            <rect id="Rectangle-Copy-12" x="0" y="110" width="70" height="10" rx="5"></rect>
            <rect id="Rectangle-Copy-13" fill-opacity="0.25" x="0" y="88" width="70" height="10" rx="5"></rect>
            <rect id="Rectangle-Copy-14" fill-opacity="0.2" x="0" y="66" width="70" height="10" rx="5"></rect>
            <rect id="Rectangle-Copy-15" fill-opacity="0.15" x="0" y="44" width="70" height="10" rx="5"></rect>
            <rect id="Rectangle-Copy-16" fill-opacity="0.08" x="0" y="22" width="70" height="10" rx="5"></rect>
            <rect id="Rectangle-Copy-17" fill-opacity="0.04" x="0" y="0" width="70" height="10" rx="5"></rect>
            <rect id="Rectangle-Copy-4" x="0" y="308" width="70" height="10" rx="5"></rect>
        </g>
        <g id="blue" transform="translate(200.000000, 574.000000)" fill="#000DE3">
            <rect id="Rectangle" x="0" y="440" width="70" height="10" rx="5"></rect>
            <rect id="Rectangle-Copy" x="0" y="418" width="70" height="10" rx="5"></rect>
            <rect id="Rectangle-Copy-2" x="0" y="396" width="70" height="10" rx="5"></rect>
            <rect id="Rectangle-Copy-3" x="0" y="352" width="70" height="10" rx="5"></rect>
            <rect id="Rectangle-Copy-5" x="0" y="330" width="70" height="10" rx="5"></rect>
            <rect id="Rectangle-Copy-6" x="0" y="308" width="70" height="10" rx="5"></rect>
            <rect id="Rectangle-Copy-7" x="0" y="286" width="70" height="10" rx="5"></rect>
            <rect id="Rectangle-Copy-8" x="0" y="264" width="70" height="10" rx="5"></rect>
            <rect id="Rectangle-Copy-9" x="0" y="242" width="70" height="10" rx="5"></rect>
            <rect id="Rectangle-Copy-10" x="0" y="220" width="70" height="10" rx="5"></rect>
            <rect id="Rectangle-Copy-11" x="0" y="198" width="70" height="10" rx="5"></rect>
            <rect id="Rectangle-Copy-12" x="0" y="176" width="70" height="10" rx="5"></rect>
            <rect id="Rectangle-Copy-13" x="0" y="154" width="70" height="10" rx="5"></rect>
            <rect id="Rectangle-Copy-14" x="0" y="132" width="70" height="10" rx="5"></rect>
            <rect id="Rectangle-Copy-15" fill-opacity="0.25" x="0" y="110" width="70" height="10" rx="5"></rect>
            <rect id="Rectangle-Copy-16" fill-opacity="0.195640297" x="0" y="88" width="70" height="10" rx="5"></rect>
            <rect id="Rectangle-Copy-17" fill-opacity="0.146470717" x="0" y="66" width="70" height="10" rx="5"></rect>
            <rect id="Rectangle-Copy-18" fill-opacity="0.0964270105" x="0" y="44" width="70" height="10" rx="5"></rect>
            <rect id="Rectangle-Copy-19" fill-opacity="0.0877403846" x="0" y="22" width="70" height="10" rx="5"></rect>
            <rect id="Rectangle-Copy-20" fill-opacity="0.0546055507" x="0" y="0" width="70" height="10" rx="5"></rect>
            <rect id="Rectangle-Copy-4" x="0" y="374" width="70" height="10" rx="5"></rect>
        </g>
        <g id="blue1" transform="translate(300.000000, 574.000000)" fill="#005AFF">
            <rect id="Rectangle" x="0" y="440" width="70" height="10" rx="5"></rect>
            <rect id="Rectangle-Copy" x="0" y="418" width="70" height="10" rx="5"></rect>
            <rect id="Rectangle-Copy-2" x="0" y="396" width="70" height="10" rx="5"></rect>
            <rect id="Rectangle-Copy-3" x="0" y="352" width="70" height="10" rx="5"></rect>
            <rect id="Rectangle-Copy-5" x="0" y="330" width="70" height="10" rx="5"></rect>
            <rect id="Rectangle-Copy-6" x="0" y="308" width="70" height="10" rx="5"></rect>
            <rect id="Rectangle-Copy-7" x="0" y="286" width="70" height="10" rx="5"></rect>
            <rect id="Rectangle-Copy-8" x="0" y="264" width="70" height="10" rx="5"></rect>
            <rect id="Rectangle-Copy-9" x="0" y="242" width="70" height="10" rx="5"></rect>
            <rect id="Rectangle-Copy-10" x="0" y="220" width="70" height="10" rx="5"></rect>
            <rect id="Rectangle-Copy-11" fill-opacity="0.5" x="0" y="198" width="70" height="10" rx="5"></rect>
            <rect id="Rectangle-Copy-12" fill-opacity="0.4" x="0" y="176" width="70" height="10" rx="5"></rect>
            <rect id="Rectangle-Copy-13" fill-opacity="0.3" x="0" y="154" width="70" height="10" rx="5"></rect>
            <rect id="Rectangle-Copy-14" fill-opacity="0.2" x="0" y="132" width="70" height="10" rx="5"></rect>
            <rect id="Rectangle-Copy-15" fill-opacity="0.15" x="0" y="110" width="70" height="10" rx="5"></rect>
            <rect id="Rectangle-Copy-16" fill-opacity="0.1" x="0" y="88" width="70" height="10" rx="5"></rect>
            <rect id="Rectangle-Copy-17" fill-opacity="0.1" x="0" y="66" width="70" height="10" rx="5"></rect>
            <rect id="Rectangle-Copy-18" fill-opacity="0.08" x="0" y="44" width="70" height="10" rx="5"></rect>
            <rect id="Rectangle-Copy-19" fill-opacity="0.05" x="0" y="22" width="70" height="10" rx="5"></rect>
            <rect id="Rectangle-Copy-20" fill-opacity="0.02" x="0" y="0" width="70" height="10" rx="5"></rect>
            <rect id="Rectangle-Copy-4" x="0" y="374" width="70" height="10" rx="5"></rect>
        </g>
        <g id="teal" transform="translate(400.000000, 574.000000)" fill="#00D1FF">
            <rect id="Rectangle" x="0" y="440" width="70" height="10" rx="5"></rect>
            <rect id="Rectangle-Copy" x="0" y="418" width="70" height="10" rx="5"></rect>
            <rect id="Rectangle-Copy-2" x="0" y="396" width="70" height="10" rx="5"></rect>
            <rect id="Rectangle-Copy-3" x="0" y="352" width="70" height="10" rx="5"></rect>
            <rect id="Rectangle-Copy-5" x="0" y="330" width="70" height="10" rx="5"></rect>
            <rect id="Rectangle-Copy-6" x="0" y="308" width="70" height="10" rx="5"></rect>
            <rect id="Rectangle-Copy-7" x="0" y="286" width="70" height="10" rx="5"></rect>
            <rect id="Rectangle-Copy-8" fill-opacity="0.55" x="0" y="264" width="70" height="10" rx="5"></rect>
            <rect id="Rectangle-Copy-9" fill-opacity="0.4" x="0" y="242" width="70" height="10" rx="5"></rect>
            <rect id="Rectangle-Copy-10" fill-opacity="0.3" x="0" y="220" width="70" height="10" rx="5"></rect>
            <rect id="Rectangle-Copy-11" fill-opacity="0.2" x="0" y="198" width="70" height="10" rx="5"></rect>
            <rect id="Rectangle-Copy-12" fill-opacity="0.15" x="0" y="176" width="70" height="10" rx="5"></rect>
            <rect id="Rectangle-Copy-13" fill-opacity="0.1" x="0" y="154" width="70" height="10" rx="5"></rect>
            <rect id="Rectangle-Copy-14" fill-opacity="0.1" x="0" y="132" width="70" height="10" rx="5"></rect>
            <rect id="Rectangle-Copy-15" fill-opacity="0.1" x="0" y="110" width="70" height="10" rx="5"></rect>
            <rect id="Rectangle-Copy-16" fill-opacity="0.08" x="0" y="88" width="70" height="10" rx="5"></rect>
            <rect id="Rectangle-Copy-17" fill-opacity="0.06" x="0" y="66" width="70" height="10" rx="5"></rect>
            <rect id="Rectangle-Copy-18" fill-opacity="0.04" x="0" y="44" width="70" height="10" rx="5"></rect>
            <rect id="Rectangle-Copy-19" fill-opacity="0.04" x="0" y="22" width="70" height="10" rx="5"></rect>
            <rect id="Rectangle-Copy-20" fill-opacity="0.02" x="0" y="0" width="70" height="10" rx="5"></rect>
            <rect id="Rectangle-Copy-4" x="0" y="374" width="70" height="10" rx="5"></rect>
        </g>
        <g id="green" transform="translate(500.000000, 574.000000)" fill="#00FF6B">
            <rect id="Rectangle" x="0" y="440" width="70" height="10" rx="5"></rect>
            <rect id="Rectangle-Copy" x="0" y="418" width="70" height="10" rx="5"></rect>
            <rect id="Rectangle-Copy-2" x="0" y="396" width="70" height="10" rx="5"></rect>
            <rect id="Rectangle-Copy-3" x="0" y="352" width="70" height="10" rx="5"></rect>
            <rect id="Rectangle-Copy-5" x="0" y="330" width="70" height="10" rx="5"></rect>
            <rect id="Rectangle-Copy-6" x="0" y="308" width="70" height="10" rx="5"></rect>
            <rect id="Rectangle-Copy-7" x="0" y="286" width="70" height="10" rx="5"></rect>
            <rect id="Rectangle-Copy-8" x="0" y="264" width="70" height="10" rx="5"></rect>
            <rect id="Rectangle-Copy-9" x="0" y="242" width="70" height="10" rx="5"></rect>
            <rect id="Rectangle-Copy-10" x="0" y="220" width="70" height="10" rx="5"></rect>
            <rect id="Rectangle-Copy-11" x="0" y="198" width="70" height="10" rx="5"></rect>
            <rect id="Rectangle-Copy-12" x="0" y="176" width="70" height="10" rx="5"></rect>
            <rect id="Rectangle-Copy-13" fill-opacity="0.4" x="0" y="154" width="70" height="10" rx="5"></rect>
            <rect id="Rectangle-Copy-14" fill-opacity="0.3" x="0" y="132" width="70" height="10" rx="5"></rect>
            <rect id="Rectangle-Copy-15" fill-opacity="0.2" x="0" y="110" width="70" height="10" rx="5"></rect>
            <rect id="Rectangle-Copy-16" fill-opacity="0.15" x="0" y="88" width="70" height="10" rx="5"></rect>
            <rect id="Rectangle-Copy-17" fill-opacity="0.1" x="0" y="66" width="70" height="10" rx="5"></rect>
            <rect id="Rectangle-Copy-18" fill-opacity="0.05" x="0" y="44" width="70" height="10" rx="5"></rect>
            <rect id="Rectangle-Copy-19" fill-opacity="0.04" x="0" y="22" width="70" height="10" rx="5"></rect>
            <rect id="Rectangle-Copy-20" fill-opacity="0.02" x="0" y="0" width="70" height="10" rx="5"></rect>
            <rect id="Rectangle-Copy-4" x="0" y="374" width="70" height="10" rx="5"></rect>
        </g>
        <g id="green2" transform="translate(600.000000, 574.000000)" fill="#54FF00">
            <rect id="Rectangle" x="0" y="440" width="70" height="10" rx="5"></rect>
            <rect id="Rectangle-Copy" x="0" y="418" width="70" height="10" rx="5"></rect>
            <rect id="Rectangle-Copy-2" x="0" y="396" width="70" height="10" rx="5"></rect>
            <rect id="Rectangle-Copy-3" x="0" y="352" width="70" height="10" rx="5"></rect>
            <rect id="Rectangle-Copy-5" x="0" y="330" width="70" height="10" rx="5"></rect>
            <rect id="Rectangle-Copy-6" x="0" y="308" width="70" height="10" rx="5"></rect>
            <rect id="Rectangle-Copy-7" x="0" y="286" width="70" height="10" rx="5"></rect>
            <rect id="Rectangle-Copy-8" x="0" y="264" width="70" height="10" rx="5"></rect>
            <rect id="Rectangle-Copy-9" x="0" y="242" width="70" height="10" rx="5"></rect>
            <rect id="Rectangle-Copy-10" x="0" y="220" width="70" height="10" rx="5"></rect>
            <rect id="Rectangle-Copy-11" x="0" y="198" width="70" height="10" rx="5"></rect>
            <rect id="Rectangle-Copy-12" x="0" y="176" width="70" height="10" rx="5"></rect>
            <rect id="Rectangle-Copy-13" x="0" y="154" width="70" height="10" rx="5"></rect>
            <rect id="Rectangle-Copy-14" fill-opacity="0.5" x="0" y="132" width="70" height="10" rx="5"></rect>
            <rect id="Rectangle-Copy-15" fill-opacity="0.4" x="0" y="110" width="70" height="10" rx="5"></rect>
            <rect id="Rectangle-Copy-16" fill-opacity="0.3" x="0" y="88" width="70" height="10" rx="5"></rect>
            <rect id="Rectangle-Copy-17" fill-opacity="0.2" x="0" y="66" width="70" height="10" rx="5"></rect>
            <rect id="Rectangle-Copy-18" fill-opacity="0.1" x="0" y="44" width="70" height="10" rx="5"></rect>
            <rect id="Rectangle-Copy-19" fill-opacity="0.05" x="0" y="22" width="70" height="10" rx="5"></rect>
            <rect id="Rectangle-Copy-20" fill-opacity="0.02" x="0" y="0" width="70" height="10" rx="5"></rect>
            <rect id="Rectangle-Copy-4" x="0" y="374" width="70" height="10" rx="5"></rect>
        </g>
    </g>
</svg>